<svg width="158" height="56" viewBox="0 0 158 56" fill="none" xmlns="http://www.w3.org/2000/svg">
<rect x="0.429688" width="56" height="56" rx="11.2" fill="white"/>
<path d="M35.6094 36.2225L39.743 28.9802L39.7764 31.5429L35.6651 24.0667H39.4979L40.7347 26.7519L41.4366 28.5123L42.0494 26.763L43.2639 24.0667H47.0967L42.9853 31.5317V28.9579L47.1412 36.2225H43.197L42.0494 33.6933L41.2917 31.9328L40.6789 33.7044L39.5536 36.2225H35.6094Z" fill="black"/>
<path d="M25.1553 36.2226C25.5193 35.9477 25.9501 35.5875 26.4478 35.1418C26.9529 34.6961 27.4728 34.191 28.0076 33.6265C28.5425 33.0545 29.0401 32.4492 29.5007 31.8104C29.9686 31.1641 30.3474 30.503 30.6371 29.8271C30.9343 29.1512 31.0865 28.4864 31.094 27.8327L31.2277 27.8216C31.1459 28.0592 31.0271 28.3601 30.8711 28.724C30.7226 29.0806 30.5109 29.4371 30.236 29.7937C29.9612 30.1502 29.5972 30.4473 29.1441 30.685C28.6984 30.9227 28.1339 31.0416 27.4505 31.0416C26.6186 31.0416 25.861 30.841 25.1776 30.4399C24.5017 30.0314 23.9594 29.4223 23.5509 28.6126C23.1498 27.803 22.9492 26.7928 22.9492 25.582C22.9492 24.7204 23.0978 23.9367 23.3949 23.2311C23.6994 22.518 24.1154 21.9052 24.6428 21.3927C25.1776 20.8727 25.7867 20.4753 26.4701 20.2005C27.1609 19.9182 27.8962 19.7771 28.6762 19.7771C29.7755 19.7771 30.7634 20.0408 31.6399 20.5682C32.5164 21.0956 33.2109 21.8681 33.7234 22.8857C34.236 23.8959 34.4922 25.1401 34.4922 26.6182C34.4922 27.7918 34.3214 28.9023 33.9797 29.9497C33.638 30.9896 33.2109 31.9366 32.6984 32.7908C32.1933 33.6376 31.677 34.3581 31.1497 34.9524C30.6223 35.5392 30.1729 35.9626 29.8015 36.2226H25.1553ZM28.5759 28.4566C28.9696 28.4566 29.315 28.4195 29.6121 28.3452C29.9166 28.2709 30.1803 28.1632 30.4032 28.0221C30.6334 27.881 30.834 27.7101 31.0048 27.5096C31.0717 27.361 31.1088 27.127 31.1162 26.8076C31.1311 26.4808 31.1385 26.2431 31.1385 26.0946C31.1385 25.5078 31.0457 24.9729 30.86 24.4901C30.6817 24.0073 30.4106 23.6211 30.0466 23.3314C29.6901 23.0417 29.2407 22.8968 28.6984 22.8968C28.1711 22.8968 27.7365 23.0194 27.3948 23.2645C27.0532 23.5096 26.8006 23.8328 26.6372 24.2339C26.4738 24.635 26.3921 25.0769 26.3921 25.5597C26.3921 26.4882 26.5889 27.205 26.9826 27.7101C27.3837 28.2078 27.9148 28.4566 28.5759 28.4566Z" fill="black"/>
<path d="M11.9248 36.2226C12.2888 35.9477 12.7196 35.5875 13.2173 35.1418C13.7224 34.6961 14.2424 34.191 14.7772 33.6265C15.312 33.0545 15.8097 32.4492 16.2702 31.8104C16.7382 31.1641 17.117 30.503 17.4067 29.8271C17.7038 29.1512 17.8561 28.4864 17.8635 27.8327L17.9972 27.8216C17.9155 28.0592 17.7966 28.3601 17.6406 28.724C17.4921 29.0806 17.2804 29.4371 17.0056 29.7937C16.7307 30.1502 16.3668 30.4473 15.9136 30.685C15.468 30.9227 14.9035 31.0416 14.2201 31.0416C13.3882 31.0416 12.6305 30.841 11.9471 30.4399C11.2712 30.0314 10.7289 29.4223 10.3204 28.6126C9.9193 27.803 9.71875 26.7928 9.71875 25.582C9.71875 24.7204 9.86731 23.9367 10.1644 23.2311C10.469 22.518 10.8849 21.9052 11.4123 21.3927C11.9471 20.8727 12.5562 20.4753 13.2396 20.2005C13.9304 19.9182 14.6658 19.7771 15.4457 19.7771C16.545 19.7771 17.5329 20.0408 18.4094 20.5682C19.2859 21.0956 19.9804 21.8681 20.493 22.8857C21.0055 23.8959 21.2618 25.1401 21.2618 26.6182C21.2618 27.7918 21.0909 28.9023 20.7492 29.9497C20.4076 30.9896 19.9804 31.9366 19.4679 32.7908C18.9628 33.6376 18.4466 34.3581 17.9192 34.9524C17.3918 35.5392 16.9424 35.9626 16.571 36.2226H11.9248ZM15.3454 28.4566C15.7391 28.4566 16.0845 28.4195 16.3816 28.3452C16.6862 28.2709 16.9498 28.1632 17.1727 28.0221C17.403 27.881 17.6035 27.7101 17.7743 27.5096C17.8412 27.361 17.8783 27.127 17.8858 26.8076C17.9006 26.4808 17.9081 26.2431 17.9081 26.0946C17.9081 25.5078 17.8152 24.9729 17.6295 24.4901C17.4512 24.0073 17.1801 23.6211 16.8161 23.3314C16.4596 23.0417 16.0102 22.8968 15.468 22.8968C14.9406 22.8968 14.5061 23.0194 14.1644 23.2645C13.8227 23.5096 13.5701 23.8328 13.4067 24.2339C13.2433 24.635 13.1616 25.0769 13.1616 25.5597C13.1616 26.4882 13.3584 27.205 13.7521 27.7101C14.1532 28.2078 14.6843 28.4566 15.3454 28.4566Z" fill="black"/>
<path d="M71.1942 35L71.1849 32.2933H72.7062C73.6582 32.2933 74.436 32.1533 75.0396 31.8733C75.6431 31.5933 76.088 31.1453 76.3742 30.5293C76.6667 29.9133 76.8129 29.1013 76.8129 28.0933C76.8129 27.0978 76.6729 26.3107 76.3929 25.732C76.1129 25.1471 75.6711 24.7302 75.0676 24.4813C74.464 24.2324 73.6738 24.108 72.6969 24.108H71.1196V21.4293H73.1542C74.5916 21.4293 75.808 21.6813 76.8036 22.1853C77.8054 22.6893 78.5676 23.4329 79.0902 24.416C79.6129 25.3991 79.8742 26.6124 79.8742 28.056C79.8742 29.512 79.6036 30.7596 79.0622 31.7987C78.5209 32.8316 77.7525 33.6249 76.7569 34.1787C75.7676 34.7262 74.5947 35 73.2382 35H71.1942ZM68.9169 35V21.4293H71.8849V35H68.9169ZM86.0676 35.14C85.0347 35.14 84.1543 34.9347 83.4263 34.524C82.6983 34.1133 82.1414 33.5191 81.7556 32.7413C81.3699 31.9573 81.177 31.0116 81.177 29.904C81.177 28.7591 81.3823 27.7947 81.793 27.0107C82.2036 26.2204 82.7823 25.6231 83.529 25.2187C84.2756 24.8142 85.1499 24.612 86.1516 24.612C87.1223 24.612 87.9374 24.7956 88.597 25.1627C89.2627 25.5298 89.7667 26.0711 90.109 26.7867C90.4512 27.5022 90.6223 28.3827 90.6223 29.428C90.6223 29.5587 90.6161 29.7111 90.6036 29.8853C90.5974 30.0533 90.5881 30.2462 90.5756 30.464H84.0236C84.0921 31.3102 84.2974 31.9293 84.6396 32.3213C84.9819 32.7071 85.461 32.9 86.077 32.9C86.5872 32.9 86.973 32.788 87.2343 32.564C87.5019 32.34 87.6605 32.0444 87.7103 31.6773H90.4916C90.4356 32.3804 90.221 32.9933 89.8476 33.516C89.4805 34.0324 88.9765 34.4338 88.3356 34.72C87.6947 35 86.9387 35.14 86.0676 35.14ZM85.209 28.8307H87.8316C87.8067 28.1773 87.6481 27.6889 87.3556 27.3653C87.0694 27.0418 86.6276 26.88 86.0303 26.88C85.3272 26.88 84.8139 27.132 84.4903 27.636C84.1667 28.1338 84.0019 28.8431 83.9956 29.764C84.0454 29.4093 84.1667 29.1667 84.3596 29.036C84.5525 28.8991 84.8356 28.8307 85.209 28.8307ZM96.234 35.1587C95.3566 35.1587 94.6006 35.0311 93.966 34.776C93.3375 34.5209 92.8491 34.1351 92.5006 33.6187C92.1522 33.096 91.9593 32.4333 91.922 31.6307H94.75C94.806 32.1284 94.9646 32.4956 95.226 32.732C95.4935 32.9684 95.8513 33.0867 96.2993 33.0867C96.5233 33.0867 96.738 33.0618 96.9433 33.012C97.1486 32.956 97.3166 32.8627 97.4473 32.732C97.578 32.5951 97.6433 32.4084 97.6433 32.172C97.6433 31.9791 97.5935 31.8236 97.494 31.7053C97.4006 31.5809 97.2606 31.4782 97.074 31.3973C96.8935 31.3102 96.6726 31.2324 96.4113 31.164C96.15 31.0893 95.8544 31.0022 95.5246 30.9027C94.9397 30.7284 94.3922 30.5169 93.882 30.268C93.378 30.0191 92.9704 29.6862 92.6593 29.2693C92.3482 28.8524 92.1926 28.3049 92.1926 27.6267C92.1926 26.6124 92.5629 25.8596 93.3033 25.368C94.05 24.8764 95.0269 24.6307 96.234 24.6307C96.9433 24.6307 97.5811 24.7271 98.1473 24.92C98.7135 25.1129 99.1802 25.4551 99.5473 25.9467C99.9206 26.4382 100.16 27.132 100.266 28.028L97.4566 28.0093C97.4006 27.6111 97.3042 27.3156 97.1673 27.1227C97.0304 26.9236 96.8749 26.7929 96.7006 26.7307C96.5264 26.6622 96.346 26.628 96.1593 26.628C95.9477 26.628 95.7549 26.6622 95.5806 26.7307C95.4126 26.7991 95.2789 26.8987 95.1793 27.0293C95.0797 27.16 95.03 27.3249 95.03 27.524C95.03 27.7604 95.1046 27.9627 95.254 28.1307C95.4033 28.2987 95.6304 28.448 95.9353 28.5787C96.2402 28.7031 96.6291 28.8307 97.102 28.9613C97.4131 29.0422 97.7615 29.1418 98.1473 29.26C98.5393 29.3782 98.9126 29.5431 99.2673 29.7547C99.6282 29.9662 99.9237 30.2524 100.154 30.6133C100.39 30.9742 100.509 31.4409 100.509 32.0133C100.509 33.0089 100.126 33.7836 99.3606 34.3373C98.5953 34.8849 97.5531 35.1587 96.234 35.1587ZM102.302 35V24.8173H105.195V35H102.302ZM103.758 23.6507C103.272 23.6507 102.859 23.4827 102.516 23.1467C102.174 22.8044 102.003 22.3689 102.003 21.84C102.003 21.3111 102.174 20.8818 102.516 20.552C102.859 20.216 103.272 20.048 103.758 20.048C104.237 20.048 104.647 20.216 104.99 20.552C105.332 20.8818 105.503 21.3111 105.503 21.84C105.503 22.3689 105.332 22.8044 104.99 23.1467C104.647 23.4827 104.237 23.6507 103.758 23.6507ZM111.91 39.1907C110.902 39.2031 110.044 39.0507 109.334 38.7333C108.625 38.4222 108.096 37.9804 107.748 37.408C107.405 36.8356 107.278 36.1791 107.365 35.4387H110.184C110.177 35.7187 110.224 35.9676 110.324 36.1853C110.423 36.4093 110.604 36.5867 110.865 36.7173C111.126 36.848 111.493 36.9133 111.966 36.9133C112.402 36.9133 112.738 36.848 112.974 36.7173C113.217 36.5929 113.388 36.4031 113.488 36.148C113.587 35.8929 113.637 35.5756 113.637 35.196V32.3307C113.55 32.872 113.388 33.3169 113.152 33.6653C112.921 34.0138 112.62 34.2751 112.246 34.4493C111.873 34.6173 111.428 34.7013 110.912 34.7013C110.296 34.7013 109.748 34.5738 109.269 34.3187C108.796 34.0636 108.392 33.712 108.056 33.264C107.726 32.8098 107.474 32.2871 107.3 31.696C107.132 31.0987 107.048 30.4609 107.048 29.7827C107.048 28.6813 107.216 27.748 107.552 26.9827C107.894 26.2111 108.361 25.6262 108.952 25.228C109.549 24.8236 110.23 24.6213 110.996 24.6213C111.487 24.6213 111.91 24.6929 112.265 24.836C112.626 24.9791 112.925 25.172 113.161 25.4147C113.397 25.6511 113.569 25.9156 113.674 26.208L113.777 24.8173H116.521V34.9253C116.521 35.8338 116.347 36.6022 115.998 37.2307C115.65 37.8591 115.133 38.3382 114.449 38.668C113.771 38.9978 112.925 39.172 111.91 39.1907ZM111.873 32.3307C112.19 32.3307 112.467 32.2964 112.704 32.228C112.946 32.1533 113.145 32.0569 113.301 31.9387C113.457 31.8142 113.569 31.6836 113.637 31.5467V28.0187C113.575 27.8258 113.469 27.6547 113.32 27.5053C113.17 27.356 112.977 27.2378 112.741 27.1507C112.511 27.0573 112.243 27.0107 111.938 27.0107C111.316 27.0107 110.831 27.2378 110.482 27.692C110.134 28.1462 109.96 28.84 109.96 29.7733C109.96 30.5822 110.118 31.2107 110.436 31.6587C110.753 32.1067 111.232 32.3307 111.873 32.3307ZM118.882 35V24.8173H121.476L121.719 28.6533L121.607 27.8787C121.682 27.3187 121.828 26.7898 122.046 26.292C122.264 25.788 122.587 25.3804 123.016 25.0693C123.452 24.7582 124.028 24.6027 124.743 24.6027C125.67 24.6027 126.414 24.9044 126.974 25.508C127.54 26.1053 127.823 27.02 127.823 28.252V35H124.92V29.3347C124.92 28.6876 124.864 28.196 124.752 27.86C124.64 27.5178 124.482 27.2844 124.276 27.16C124.071 27.0356 123.828 26.9733 123.548 26.9733C123.15 26.9733 122.799 27.1009 122.494 27.356C122.189 27.6049 121.956 27.9004 121.794 28.2427V35H118.882ZM134.466 35.14C133.433 35.14 132.553 34.9347 131.825 34.524C131.097 34.1133 130.54 33.5191 130.154 32.7413C129.768 31.9573 129.575 31.0116 129.575 29.904C129.575 28.7591 129.781 27.7947 130.191 27.0107C130.602 26.2204 131.181 25.6231 131.927 25.2187C132.674 24.8142 133.548 24.612 134.55 24.612C135.521 24.612 136.336 24.7956 136.995 25.1627C137.661 25.5298 138.165 26.0711 138.507 26.7867C138.85 27.5022 139.021 28.3827 139.021 29.428C139.021 29.5587 139.015 29.7111 139.002 29.8853C138.996 30.0533 138.987 30.2462 138.974 30.464H132.422C132.491 31.3102 132.696 31.9293 133.038 32.3213C133.38 32.7071 133.859 32.9 134.475 32.9C134.986 32.9 135.371 32.788 135.633 32.564C135.9 32.34 136.059 32.0444 136.109 31.6773H138.89C138.834 32.3804 138.619 32.9933 138.246 33.516C137.879 34.0324 137.375 34.4338 136.734 34.72C136.093 35 135.337 35.14 134.466 35.14ZM133.607 28.8307H136.23C136.205 28.1773 136.047 27.6889 135.754 27.3653C135.468 27.0418 135.026 26.88 134.429 26.88C133.726 26.88 133.212 27.132 132.889 27.636C132.565 28.1338 132.4 28.8431 132.394 29.764C132.444 29.4093 132.565 29.1667 132.758 29.036C132.951 28.8991 133.234 28.8307 133.607 28.8307ZM140.793 35V24.8173H143.388L143.631 28.8027L143.463 28.196C143.519 27.6609 143.621 27.1756 143.771 26.74C143.92 26.2982 144.113 25.9187 144.349 25.6013C144.586 25.284 144.869 25.0382 145.199 24.864C145.535 24.6898 145.917 24.6027 146.347 24.6027C146.471 24.6027 146.595 24.6089 146.72 24.6213C146.851 24.6338 146.966 24.6556 147.065 24.6867V27.7013C146.854 27.6453 146.648 27.608 146.449 27.5893C146.256 27.5644 146.063 27.552 145.871 27.552C145.528 27.552 145.217 27.5831 144.937 27.6453C144.663 27.7076 144.424 27.804 144.219 27.9347C144.013 28.0591 143.842 28.2209 143.705 28.42V35H140.793ZM152.362 35.1587C151.484 35.1587 150.728 35.0311 150.094 34.776C149.465 34.5209 148.977 34.1351 148.628 33.6187C148.28 33.096 148.087 32.4333 148.05 31.6307H150.878C150.934 32.1284 151.092 32.4956 151.354 32.732C151.621 32.9684 151.979 33.0867 152.427 33.0867C152.651 33.0867 152.866 33.0618 153.071 33.012C153.276 32.956 153.444 32.8627 153.575 32.732C153.706 32.5951 153.771 32.4084 153.771 32.172C153.771 31.9791 153.721 31.8236 153.622 31.7053C153.528 31.5809 153.388 31.4782 153.202 31.3973C153.021 31.3102 152.8 31.2324 152.539 31.164C152.278 31.0893 151.982 31.0022 151.652 30.9027C151.067 30.7284 150.52 30.5169 150.01 30.268C149.506 30.0191 149.098 29.6862 148.787 29.2693C148.476 28.8524 148.32 28.3049 148.32 27.6267C148.32 26.6124 148.69 25.8596 149.431 25.368C150.178 24.8764 151.154 24.6307 152.362 24.6307C153.071 24.6307 153.709 24.7271 154.275 24.92C154.841 25.1129 155.308 25.4551 155.675 25.9467C156.048 26.4382 156.288 27.132 156.394 28.028L153.584 28.0093C153.528 27.6111 153.432 27.3156 153.295 27.1227C153.158 26.9236 153.002 26.7929 152.828 26.7307C152.654 26.6622 152.474 26.628 152.287 26.628C152.075 26.628 151.882 26.6622 151.708 26.7307C151.54 26.7991 151.406 26.8987 151.307 27.0293C151.207 27.16 151.158 27.3249 151.158 27.524C151.158 27.7604 151.232 27.9627 151.382 28.1307C151.531 28.2987 151.758 28.448 152.063 28.5787C152.368 28.7031 152.757 28.8307 153.23 28.9613C153.541 29.0422 153.889 29.1418 154.275 29.26C154.667 29.3782 155.04 29.5431 155.395 29.7547C155.756 29.9662 156.051 30.2524 156.282 30.6133C156.518 30.9742 156.636 31.4409 156.636 32.0133C156.636 33.0089 156.254 33.7836 155.488 34.3373C154.723 34.8849 153.681 35.1587 152.362 35.1587Z" fill="white"/>
</svg>
